<svg width="168" height="265" xmlns="http://www.w3.org/2000/svg"><path d="M79.64 74.775c2.471-12.473 6.018-23.79 10.642-33.949 6.872-15.102 10.592-27.135 19.663-33.734 9.072-6.6 18.308-8.593 27.71-5.98 16.65 4.627 26.361 18.804 29.134 42.53 2.772 23.727.785 50.64-5.963 80.738-6.747 30.1-15.172 56.248-25.274 78.446-7.519 16.521-19.786 33.295-31.632 45.99-2.83 5.116-8.406 11.365-15.874 14.382a8.794 8.794 0 0 1-1.271.476c-4.833 1.663-10.397 1.95-16.479-.23-23.653-8.475-27.592-27.308-38.044-48.084-10.042-19.958-18.415-43.468-25.122-70.53-6.706-27.062-8.682-51.259-5.926-72.59C3.959 50.906 13.612 38.16 30.16 33.999c9.345-2.349 18.526-.557 27.542 5.377 9.017 5.934 12.714 16.752 19.545 30.33a112.97 112.97 0 0 1 2.393 5.07zM30.023 59.962c-3.942.991-4.793 10.506-2.553 28.544 2.24 18.039 6.815 39.972 13.729 65.8 6.913 25.828 15.105 50.213 24.577 73.157 2.005-26.726 1.504-52.877-1.505-78.454-3.008-25.577-8.724-48.175-17.15-67.796-6.6-15.374-12.3-22.457-17.098-21.25zm98.43-31.92c-4.696-.922-9.893 8.51-15.591 28.297-5.699 19.787-10.63 44.762-14.792 74.926-4.163 30.164-6.297 59.467-6.403 87.91 14.182-26.684 25.403-54.012 33.663-81.985 8.26-27.974 12.261-54.202 12.002-78.686-.203-19.184-3.163-29.337-8.88-30.461z" fill="#FFF"/></svg>