<?xml version="1.0" encoding="UTF-8"?>
<svg width="168px" height="265px" viewBox="0 0 168 265" version="1.1" xmlns="http://www.w3.org/2000/svg" xmlns:xlink="http://www.w3.org/1999/xlink">
    <!-- Generator: Sketch 55.1 (78136) - https://sketchapp.com -->
    <title>Combined Shape</title>
    <desc>Created with Sketch.</desc>
    <g id="Case-Study" stroke="none" stroke-width="1" fill="none" fill-rule="evenodd">
        <g id="Calling-Case-Study" transform="translate(-229.000000, -269.000000)" fill="#FFFFFF" fill-rule="nonzero">
            <g id="Header">
                <path d="M308.640946,343.775078 C311.110991,331.302078 314.65784,319.985757 319.281508,309.826029 C326.15436,294.724101 329.87361,282.691482 338.945156,276.091733 C348.016702,269.491984 357.25346,267.498671 366.655707,270.111735 C383.305519,274.739036 393.016489,288.91572 395.788908,312.642213 C398.561326,336.368707 396.573853,363.281135 389.826427,393.380305 C383.079002,423.479475 374.654283,449.627675 364.552018,471.82569 C357.033045,488.347359 344.765738,505.121329 332.919774,517.815532 C330.090758,522.931949 324.514381,529.180597 317.045849,532.198251 C316.617037,532.396959 316.192777,532.553539 315.774915,532.673561 C310.941774,534.337076 305.377756,534.623456 299.296203,532.444206 C275.643474,523.968539 271.70416,505.136343 261.251541,484.360192 C251.210443,464.401999 242.836733,440.892203 236.129702,413.830211 C229.42359,386.767991 227.448149,362.571078 230.203782,341.238634 C232.959414,319.906189 242.611587,307.159959 259.160573,302.999498 C268.505908,300.650162 277.686741,302.442345 286.703362,308.376167 C295.719982,314.309989 299.416713,325.128493 306.247952,338.706608 C307.080767,340.361953 307.878434,342.051447 308.640952,343.775092 Z M259.02182,328.962384 C255.080375,329.953267 254.229355,339.467787 256.468738,357.506238 C258.708121,375.544689 263.284338,397.477589 270.197525,423.305596 C277.110713,449.133603 285.303171,473.519038 294.775146,496.462634 C296.780091,469.737302 296.278503,443.586475 293.270369,418.009367 C290.262234,392.43226 284.545745,369.833555 276.120729,350.212573 C269.519685,334.839433 263.820107,327.75611 259.02182,328.962384 Z M357.451949,297.042749 C352.756278,296.120479 347.559266,305.55226 341.860646,325.339 C336.162027,345.125741 331.231486,370.100836 327.068875,400.265034 C322.906264,430.429232 320.771867,459.732178 320.665621,488.174752 C334.847855,461.491213 346.069009,434.163154 354.329418,406.189755 C362.589827,378.216355 366.590324,351.987951 366.331031,327.503756 C366.127874,308.320263 363.168172,298.166904 357.451949,297.042749 Z" id="Combined-Shape"></path>
            </g>
        </g>
    </g>
</svg>