<?xml version="1.0" encoding="UTF-8"?>
<svg width="41px" height="40px" viewBox="0 0 41 40" version="1.1" xmlns="http://www.w3.org/2000/svg" xmlns:xlink="http://www.w3.org/1999/xlink">
    <!-- Generator: Sketch 55.1 (78136) - https://sketchapp.com -->
    <title>noun_Community_1706417</title>
    <desc>Created with Sketch.</desc>
    <g id="Case-Study" stroke="none" stroke-width="1" fill="none" fill-rule="evenodd">
        <g id="Calling-Case-Study" transform="translate(-752.000000, -1721.000000)" fill="#FF968D" fill-rule="nonzero">
            <g id="noun_Community_1706417" transform="translate(752.000000, 1721.000000)">
                <g id="Group">
                    <path d="M6.5152019,25.0453988 C6.48598575,24.8638037 6.4567696,24.6773006 6.4324228,24.4907975 C6.45190024,24.6233129 6.46650831,24.7509202 6.48598575,24.8834356 C6.31068884,23.4993865 6.31068884,22.1006135 6.48598575,20.7214724 C6.46650831,20.8539877 6.45190024,20.9815951 6.4324228,21.1141104 C6.61745843,19.7251534 6.98266033,18.3705521 7.52315914,17.0797546 C7.47446556,17.197546 7.42577197,17.3153374 7.37707838,17.4331288 C7.68384798,16.7067485 8.03931116,16.004908 8.44833729,15.3325153 C8.647981,15.003681 8.86223278,14.6797546 9.08622328,14.3705521 C9.13978622,14.2969325 9.19334917,14.2233129 9.24691211,14.1496933 C9.28099762,14.1055215 9.31021378,14.0515337 9.34916865,14.0122699 C9.34916865,14.0122699 9.10570071,14.3214724 9.24691211,14.1496933 C9.37351544,13.992638 9.50011876,13.8306748 9.63159145,13.6785276 C10.1233967,13.0944785 10.6638955,12.5398773 11.2336105,12.0343558 C11.3699525,11.9165644 11.5062945,11.798773 11.6426366,11.6809816 C11.7108076,11.6220859 11.783848,11.5680982 11.852019,11.5092025 C11.8861045,11.4797546 11.9250594,11.4552147 11.9591449,11.4257669 C11.593943,11.7202454 11.7887173,11.5582822 11.8763658,11.4895706 C12.1831354,11.2588957 12.4947743,11.0380368 12.8210214,10.8319018 C13.5660333,10.3509202 14.35,9.93374233 15.1631829,9.58527607 C15.0463183,9.63435583 14.9294537,9.68343558 14.8125891,9.73251534 C15.0219715,9.64417178 15.2362233,9.5607362 15.4504751,9.47730061 C15.815677,9.3398773 16.1224466,9.14846626 16.3220903,8.8 C16.5071259,8.48588957 16.5850356,8.0196319 16.468171,7.66625767 C16.2441805,6.96441718 15.435867,6.35092025 14.6713777,6.63558282 C11.9055819,7.6809816 9.39786223,9.3791411 7.49881235,11.6662577 C5.59489311,13.9582822 4.2412114,16.7067485 3.72019002,19.6613497 C3.35985748,21.7177914 3.35985748,23.7644172 3.70071259,25.8257669 C3.75914489,26.1693252 4.08539192,26.5374233 4.37268409,26.7042945 C4.68432304,26.8907975 5.14691211,26.9693252 5.49750594,26.8515337 C5.85296912,26.7386503 6.19382423,26.5177914 6.36912114,26.1742331 C6.56389549,25.8110429 6.58337292,25.4576687 6.5152019,25.0453988 L6.5152019,25.0453988 Z" id="Path"></path>
                    <path d="M29.4206651,33.8895706 C29.3427553,33.9533742 29.2599762,34.0220859 29.1820665,34.0858896 C29.1431116,34.1202454 29.0992874,34.1496933 29.0603325,34.1840491 C29.2453682,34.0417178 29.2891924,34.002454 29.2015439,34.0711656 C29.0457245,34.1889571 28.889905,34.3067485 28.7340855,34.4147239 C28.4370546,34.6257669 28.1351544,34.8269939 27.8235154,35.0134969 C27.1758907,35.406135 26.5039192,35.7496933 25.807601,36.0490798 C25.9244656,36 26.0413302,35.9509202 26.1581948,35.9018405 C24.9067696,36.4269939 23.5920428,36.790184 22.2480998,36.9766871 C22.3795724,36.9570552 22.5061758,36.9423313 22.6376485,36.9226994 C21.2206651,37.1141104 19.7890736,37.1141104 18.3720903,36.9226994 C18.5035629,36.9423313 18.6301663,36.9570552 18.761639,36.9766871 C17.417696,36.790184 16.1029691,36.4269939 14.8515439,35.9018405 C14.9684086,35.9509202 15.0852732,36 15.2021378,36.0490798 C14.5058195,35.7546012 13.833848,35.406135 13.1862233,35.0134969 C12.8745843,34.8269939 12.5726841,34.6257669 12.2756532,34.4147239 C12.1295724,34.3116564 11.9834917,34.198773 11.8374109,34.0907975 C11.715677,33.997546 11.7546318,34.0269939 11.9494062,34.1791411 C11.9104513,34.1447853 11.8666271,34.1153374 11.8276722,34.0809816 C11.7448931,34.0171779 11.6669834,33.9484663 11.5890736,33.8846626 C11.282304,33.6294479 10.9706651,33.4527607 10.5567696,33.4527607 C10.1964371,33.4527607 9.77280285,33.6147239 9.52446556,33.8846626 C9.03266033,34.4245399 8.89631829,35.4453988 9.52446556,35.9656442 C11.8763658,37.9190184 14.6859857,39.2981595 17.7098575,39.7693252 C20.8165083,40.2552147 24.0254157,39.9607362 26.9372922,38.7337423 C28.6026128,38.0319018 30.1023753,37.1190184 31.4950119,35.9656442 C31.767696,35.7398773 31.9235154,35.2638037 31.9235154,34.9251534 C31.9235154,34.5619632 31.7628266,34.1349693 31.4950119,33.8846626 C31.2174584,33.6294479 30.8522565,33.4380368 30.4627078,33.4527607 C30.043943,33.4773006 29.732304,33.6294479 29.4206651,33.8895706 L29.4206651,33.8895706 Z" id="Path"></path>
                    <path d="M25.5495249,9.47730061 C25.7637767,9.55582822 25.9731591,9.64417178 26.1874109,9.73251534 C26.0705463,9.68343558 25.9536817,9.63435583 25.8368171,9.58527607 C26.5574822,9.89447853 27.2538005,10.2527607 27.9209026,10.6650307 C28.2471496,10.8662577 28.5685273,11.0822086 28.8752969,11.3079755 C28.9483373,11.3619632 29.0213777,11.4159509 29.0944181,11.4699387 C29.1382423,11.5042945 29.1918052,11.5337423 29.2307601,11.5730061 C29.2307601,11.5730061 28.9239905,11.3276074 29.0944181,11.4699387 C29.2502375,11.597546 29.4109264,11.7251534 29.5618765,11.8576687 C30.1413302,12.3533742 30.6915677,12.8981595 31.1931116,13.4723926 C31.3099762,13.609816 31.4268409,13.7472393 31.5437055,13.8846626 C31.6021378,13.9533742 31.6557007,14.0269939 31.714133,14.0957055 C31.7433492,14.1300613 31.767696,14.1693252 31.7969121,14.203681 C31.5047506,13.8355828 31.6654394,14.0319018 31.7336105,14.1202454 C31.9624703,14.4294479 32.1815914,14.7435583 32.3861045,15.0723926 C32.8633017,15.8233129 33.2771971,16.6134969 33.6229216,17.4331288 C33.574228,17.3153374 33.5255344,17.197546 33.4768409,17.0797546 C34.0173397,18.3705521 34.3825416,19.7300613 34.5675772,21.1141104 C34.5480998,20.9815951 34.5334917,20.8539877 34.5140143,20.7214724 C34.6941805,22.1055215 34.6941805,23.5042945 34.5140143,24.8834356 C34.5334917,24.7509202 34.5480998,24.6233129 34.5675772,24.4907975 C34.5432304,24.6773006 34.5140143,24.8588957 34.4847981,25.0453988 C34.4166271,25.4478528 34.4214964,25.8159509 34.6308789,26.1791411 C34.8061758,26.4834356 35.1567696,26.7779141 35.5024941,26.8564417 C36.2085511,27.0184049 37.1678147,26.6404908 37.2992874,25.8257669 C37.6109264,23.9361963 37.6255344,22.0809816 37.3625891,20.1865031 C37.1483373,18.6748466 36.7003563,17.2417178 36.1014252,15.8429448 C34.9376485,13.1141104 33.0142518,10.797546 30.6769596,9.00613497 C29.3524941,7.99018405 27.8819477,7.22453988 26.3286223,6.63558282 C25.9926366,6.50797546 25.5008314,6.60613497 25.2038005,6.78282209 C24.9019002,6.9595092 24.6097387,7.31288344 24.531829,7.66134969 C24.341924,8.5006135 24.7850356,9.18773006 25.5495249,9.47730061 L25.5495249,9.47730061 Z" id="Path"></path>
                    <path d="M24.5659145,7.07730061 C24.5659145,7.31779141 24.5513064,7.55828221 24.5220903,7.79386503 C24.5415677,7.66134969 24.5561758,7.53374233 24.5756532,7.40122699 C24.5074822,7.89202454 24.3857482,8.36809816 24.1958432,8.82944785 C24.2445368,8.71165644 24.2932304,8.59386503 24.341924,8.47607362 C24.2055819,8.8 24.0400238,9.11411043 23.8452494,9.40858896 C23.7965558,9.48220859 23.7478622,9.55092025 23.6942993,9.62453988 C23.5530879,9.82576687 23.9523753,9.30552147 23.7235154,9.58527607 C23.6115202,9.71779141 23.4946556,9.85030675 23.3729216,9.97300613 C23.2511876,10.0957055 23.119715,10.2134969 22.9882423,10.3263804 C22.7106888,10.5570552 23.2268409,10.1595092 23.0271971,10.2969325 C22.9541568,10.3460123 22.8859857,10.4 22.8129454,10.4490798 C22.5207838,10.6453988 22.2091449,10.807362 21.8877672,10.9447853 C22.0046318,10.8957055 22.1214964,10.8466258 22.238361,10.797546 C21.8001188,10.9791411 21.3472684,11.1018405 20.87981,11.1705521 C21.0112827,11.1509202 21.137886,11.1361963 21.2693587,11.1165644 C20.7629454,11.1852761 20.2565321,11.1852761 19.7501188,11.1165644 C19.8815914,11.1361963 20.0081948,11.1509202 20.1396675,11.1705521 C19.672209,11.1018405 19.2193587,10.9791411 18.7811164,10.797546 C18.897981,10.8466258 19.0148456,10.8957055 19.1317102,10.9447853 C18.8103325,10.807362 18.4986936,10.6404908 18.2065321,10.4490798 C18.1334917,10.4 18.0653207,10.3509202 17.9922803,10.2969325 C17.7926366,10.1546012 18.3087886,10.5570552 18.0312352,10.3263804 C17.8948931,10.2134969 17.7682898,10.0957055 17.6465558,9.97300613 C17.5248219,9.85030675 17.4079572,9.71779141 17.295962,9.58527607 C17.0671021,9.30552147 17.4663895,9.82576687 17.3251781,9.62453988 C17.2764846,9.55092025 17.2229216,9.48220859 17.174228,9.40858896 C16.9794537,9.11411043 16.8138955,8.8 16.6775534,8.47607362 C16.726247,8.59386503 16.7749406,8.71165644 16.8236342,8.82944785 C16.6385986,8.36809816 16.5119952,7.89693252 16.4438242,7.40122699 C16.4633017,7.53374233 16.4779097,7.66134969 16.4973872,7.79386503 C16.4389549,7.30306748 16.4389549,6.81226994 16.5022565,6.32638037 C16.4827791,6.45889571 16.468171,6.58650307 16.4486936,6.7190184 C16.5168646,6.23803681 16.6434679,5.76687117 16.8285036,5.31533742 C16.77981,5.43312883 16.7311164,5.55092025 16.6824228,5.66871166 C16.8187648,5.34969325 16.9794537,5.04539877 17.1693587,4.75582822 C17.2180523,4.68220859 17.2667458,4.61349693 17.3154394,4.54478528 C17.4274347,4.38282209 17.2034442,4.68711656 17.2034442,4.68711656 C17.2083135,4.66257669 17.2667458,4.60858896 17.2813539,4.58895706 C17.3982185,4.44662577 17.5199525,4.31411043 17.6465558,4.18650307 C17.7682898,4.06380368 17.8948931,3.95092025 18.0214964,3.83803681 C18.0555819,3.80858896 18.0896675,3.78404908 18.1188836,3.75460123 C18.2454869,3.64662577 17.8364608,3.9607362 17.9776722,3.86748466 C18.0507126,3.81840491 18.1140143,3.76932515 18.1870546,3.7202454 C18.4840855,3.5190184 18.7957245,3.35214724 19.1219715,3.21472393 C19.0051069,3.26380368 18.8882423,3.31288344 18.7713777,3.36196319 C19.2193587,3.17546012 19.6819477,3.04785276 20.1640143,2.9791411 C20.0325416,2.99877301 19.9059382,3.01349693 19.7744656,3.03312883 C20.2711401,2.96932515 20.7678147,2.96932515 21.2644893,3.03312883 C21.1330166,3.01349693 21.0064133,2.99877301 20.8749406,2.9791411 C21.3521378,3.04785276 21.8195962,3.17546012 22.2675772,3.36196319 C22.1507126,3.31288344 22.033848,3.26380368 21.9169834,3.21472393 C22.2334917,3.35214724 22.5353919,3.51411043 22.8226841,3.70552147 C22.8957245,3.75460123 22.9638955,3.80368098 23.0320665,3.85276074 C23.1927553,3.96564417 22.8908551,3.7398773 22.8908551,3.7398773 C22.9152019,3.74478528 22.9687648,3.80368098 22.9882423,3.81840491 C23.1294537,3.93619632 23.2609264,4.05889571 23.3875297,4.18650307 C23.5092637,4.30920245 23.6212589,4.43680982 23.7332542,4.56441718 C23.7624703,4.59877301 23.7868171,4.63312883 23.8160333,4.66257669 C23.9231591,4.79018405 23.6115202,4.37791411 23.704038,4.5202454 C23.7527316,4.59386503 23.8014252,4.65766871 23.8501188,4.73128834 C24.0497625,5.03067485 24.2153207,5.34478528 24.3516627,5.67361963 C24.3029691,5.55582822 24.2542755,5.43803681 24.2055819,5.3202454 C24.3906176,5.77177914 24.5172209,6.23803681 24.5853919,6.72392638 C24.5659145,6.59141104 24.5513064,6.46380368 24.531829,6.33128834 C24.5464371,6.57668712 24.5610451,6.82208589 24.5659145,7.07730061 C24.5707838,7.84785276 25.2330166,8.58404908 26.0267221,8.54969325 C26.8155582,8.51533742 27.492399,7.90184049 27.4875558,7.07730061 C27.477791,5.70306748 27.0833729,4.29447853 26.3042755,3.1607362 C25.4618765,1.93374233 24.3370546,1.05030675 22.9638955,0.495705521 C20.3880048,-0.544785276 17.242399,0.230674847 15.382304,2.28711656 C14.4766033,3.28834356 13.8143705,4.55460123 13.6195962,5.90429448 C13.3907363,7.50920245 13.6195962,9.10920245 14.4084323,10.5325153 C15.0609264,11.7153374 16.1078385,12.7411043 17.3105701,13.3447853 C18.7129454,14.0417178 20.2078385,14.2429448 21.7465558,14.002454 C24.4733967,13.5705521 26.8204276,11.2441718 27.3317102,8.5202454 C27.4193587,8.04907975 27.477791,7.56319018 27.4826603,7.08220859 C27.4875558,6.31165644 26.8058195,5.57546012 26.0218527,5.60981595 C25.2281473,5.6392638 24.5707838,6.24785276 24.5659145,7.07730061 Z" id="Path"></path>
                    <path d="M37.5427553,32.7165644 C37.4599762,32.8539877 37.3771971,32.991411 37.2846793,33.1239264 C37.2457245,33.1779141 37.2067696,33.2319018 37.1678147,33.2907975 C37.4356295,32.9079755 37.3041568,33.1190184 37.2311164,33.202454 C37.0412114,33.4331288 36.831829,33.6441718 36.6127078,33.8404908 C36.5786223,33.8748466 36.4861045,33.9828221 36.4374109,33.9877301 C36.5007126,33.9828221 36.7587886,33.7472393 36.5250594,33.9141104 C36.4130641,33.997546 36.2961995,34.0760736 36.1744656,34.1496933 C35.9261283,34.3018405 35.6729216,34.4343558 35.4051069,34.5472393 C35.5219715,34.4981595 35.6388361,34.4490798 35.7557007,34.4 C35.3028504,34.5865031 34.8305226,34.7141104 34.3435867,34.7828221 C34.4750594,34.7631902 34.6016627,34.7484663 34.7331354,34.7288344 C34.2413302,34.792638 33.7495249,34.7877301 33.2577197,34.7239264 C33.3891924,34.7435583 33.5157957,34.7582822 33.6472684,34.7779141 C33.1652019,34.7092025 32.7026128,34.5766871 32.2546318,34.390184 C32.3714964,34.4392638 32.488361,34.4883436 32.6052257,34.5374233 C32.2887173,34.4 31.9819477,34.2331288 31.6897862,34.0417178 C31.6410926,34.007362 31.592399,33.9730061 31.5437055,33.9386503 C31.4171021,33.8453988 31.4463183,33.8699387 31.6264846,34.007362 C31.5826603,33.9484663 31.4901425,33.8993865 31.4365796,33.8503067 C31.3099762,33.7423313 31.1931116,33.6245399 31.076247,33.5067485 C30.9642518,33.3889571 30.8571259,33.2613497 30.75,33.1337423 C30.5747031,32.9226994 30.9593824,33.4331288 30.8084323,33.207362 C30.7548694,33.1288344 30.7013064,33.0552147 30.6526128,32.9766871 C30.4773159,32.7018405 30.3263658,32.4171779 30.1997625,32.1177914 C30.2484561,32.2355828 30.2971496,32.3533742 30.3458432,32.4711656 C30.1510689,32 30.0195962,31.5092025 29.9514252,31.003681 C29.9709026,31.1361963 29.9855107,31.2638037 30.0049881,31.396319 C29.9465558,30.9104294 29.9465558,30.4196319 30.0098575,29.9337423 C29.99038,30.0662577 29.975772,30.193865 29.9562945,30.3263804 C30.0244656,29.8306748 30.1608076,29.3496933 30.3507126,28.8834356 C30.302019,29.001227 30.2533254,29.1190184 30.2046318,29.2368098 C30.3507126,28.9030675 30.5211401,28.5840491 30.7256532,28.2797546 C30.7743468,28.206135 30.8279097,28.1128834 30.8912114,28.0490798 C30.8425178,28.1128834 30.7938242,28.1717791 30.75,28.2355828 C30.7792162,28.201227 30.8084323,28.1619632 30.8376485,28.1276074 C30.9496437,27.995092 31.0665083,27.8674847 31.1882423,27.7447853 C31.3099762,27.6269939 31.4365796,27.5141104 31.5680523,27.401227 C31.7725653,27.2245399 31.266152,27.6171779 31.4852732,27.4650307 C31.5583135,27.4110429 31.6313539,27.3619632 31.7043943,27.3079755 C31.9819477,27.1214724 32.2789786,26.9644172 32.5808789,26.8319018 C32.4640143,26.8809816 32.3471496,26.9300613 32.230285,26.9791411 C32.7026128,26.7779141 33.1895487,26.6453988 33.695962,26.5717791 C33.5644893,26.591411 33.437886,26.606135 33.3064133,26.6257669 C33.7933492,26.5619632 34.2851544,26.5668712 34.7720903,26.6306748 C34.6406176,26.6110429 34.5140143,26.596319 34.3825416,26.5766871 C34.8548694,26.6453988 35.3077197,26.7730061 35.7508314,26.9546012 C35.6339667,26.9055215 35.5171021,26.8564417 35.4002375,26.807362 C35.7654394,26.9644172 36.1160333,27.1558282 36.4422803,27.3865031 C36.5396675,27.4552147 36.7831354,27.6809816 36.4179335,27.3570552 C36.4861045,27.4159509 36.5542755,27.4699387 36.6224466,27.5288344 C36.7441805,27.6368098 36.8659145,27.7546012 36.9779097,27.8723926 C37.089905,27.990184 37.1921615,28.1226994 37.2992874,28.2453988 C36.9730404,27.8773006 37.1921615,28.1079755 37.2652019,28.206135 C37.3090261,28.2699387 37.3528504,28.3288344 37.3918052,28.392638 C37.5719715,28.6723926 37.7229216,28.9717791 37.8543943,29.2760736 C37.8057007,29.1582822 37.7570071,29.0404908 37.7083135,28.9226994 C37.8933492,29.3791411 38.0199525,29.8552147 38.0881235,30.3460123 C38.0686461,30.2134969 38.054038,30.0858896 38.0345606,29.9533742 C38.0978622,30.4490798 38.0929929,30.9447853 38.0296912,31.4404908 C38.0491686,31.3079755 38.0637767,31.1803681 38.0832542,31.0478528 C38.0150831,31.5337423 37.8836105,32 37.6985748,32.4515337 C37.7472684,32.3337423 37.795962,32.2159509 37.8446556,32.0981595 C37.7521378,32.3141104 37.6547506,32.5153374 37.5427553,32.7165644 C37.1629454,33.3840491 37.3625891,34.3558282 38.0686461,34.7288344 C38.760095,35.0969325 39.6657957,34.9153374 40.0650831,34.198773 C41.4041568,31.8282209 41.311639,28.7263804 39.6609264,26.5276074 C38.7065321,25.2613497 37.4258907,24.3141104 35.8920428,23.8822086 C34.5821853,23.5141104 33.111639,23.5386503 31.8261283,23.9852761 C30.3847981,24.4858896 29.2015439,25.393865 28.3055819,26.6306748 C27.4583135,27.798773 27.0152019,29.3104294 27.0395487,30.7533742 C27.0931116,33.8404908 29.1820665,36.603681 32.1377672,37.4478528 C34.7185273,38.1791411 37.7034442,37.3006135 39.3833729,35.1705521 C39.6317102,34.8564417 39.8654394,34.5423313 40.0699525,34.193865 C40.4546318,33.5263804 40.2452494,32.5496933 39.5440618,32.1815951 C38.8380048,31.8134969 37.9517815,32.004908 37.5427553,32.7165644 Z" id="Path"></path>
                    <path d="M9.51472684,33.8895706 C9.49038005,33.9092025 9.26152019,34.0957055 9.45629454,33.9386503 C9.64619952,33.791411 9.43194774,33.9533742 9.38812352,33.9828221 C9.26638955,34.0711656 9.13978622,34.1496933 9.00831354,34.2233129 C8.81353919,34.3361963 8.60902613,34.4392638 8.39964371,34.5276074 C8.51650831,34.4785276 8.63337292,34.4294479 8.75023753,34.3803681 C8.30225653,34.5668712 7.83966746,34.6993865 7.35760095,34.7680982 C7.48907363,34.7484663 7.61567696,34.7337423 7.74714964,34.7141104 C7.25534442,34.7779141 6.76353919,34.7828221 6.27173397,34.7190184 C6.40320665,34.7386503 6.52980998,34.7533742 6.66128266,34.7730061 C6.17434679,34.7042945 5.702019,34.5766871 5.24916865,34.390184 C5.36603325,34.4392638 5.48289786,34.4883436 5.59976247,34.5374233 C5.28325416,34.404908 4.98135392,34.2429448 4.69406176,34.0564417 C4.62102138,34.007362 4.55285036,33.9582822 4.47980998,33.9092025 C4.18764846,33.6981595 4.70380048,34.1006135 4.51876485,33.9386503 C4.39216152,33.8306748 4.27042755,33.7226994 4.15356295,33.609816 C4.03669834,33.4920245 3.92470309,33.3742331 3.8175772,33.2466258 C3.73966746,33.1533742 3.56437055,32.8785276 3.83705463,33.2809816 C3.78836105,33.207362 3.72992874,33.1337423 3.68123515,33.0601227 C3.47672209,32.7558282 3.30629454,32.4368098 3.16021378,32.0981595 C3.20890736,32.2159509 3.25760095,32.3337423 3.30629454,32.4515337 C3.12125891,32 2.98978622,31.5337423 2.9216152,31.0478528 C2.94109264,31.1803681 2.95570071,31.3079755 2.97517815,31.4404908 C2.91187648,30.9447853 2.90700713,30.4490798 2.97030879,29.9533742 C2.95083135,30.0858896 2.93622328,30.2134969 2.91674584,30.3460123 C2.98491686,29.8552147 3.11152019,29.3791411 3.29655582,28.9226994 C3.24786223,29.0404908 3.19916865,29.1582822 3.15047506,29.2760736 C3.27707838,28.9766871 3.42315914,28.6920245 3.5935867,28.4171779 C3.63741093,28.3435583 3.68610451,28.2699387 3.73966746,28.201227 C3.81270784,28.0981595 4.03182898,27.8723926 3.70558195,28.2404908 C3.81270784,28.1177914 3.91496437,27.990184 4.02695962,27.8674847 C4.13895487,27.7496933 4.26068884,27.6319018 4.3824228,27.5239264 C4.45059382,27.4650307 4.51876485,27.4110429 4.58693587,27.3521472 C4.23147268,27.6662577 4.43598575,27.4699387 4.53337292,27.401227 C4.86935867,27.1607362 5.22969121,26.9644172 5.60463183,26.802454 C5.48776722,26.8515337 5.37090261,26.9006135 5.254038,26.9496933 C5.69714964,26.7680982 6.15,26.6404908 6.62232779,26.5717791 C6.49085511,26.591411 6.36425178,26.606135 6.2327791,26.6257669 C6.71971496,26.5619632 7.21152019,26.5619632 7.69845606,26.6208589 C7.56698337,26.601227 7.44038005,26.5865031 7.30890736,26.5668712 C7.81532067,26.6355828 8.30712589,26.7730061 8.77458432,26.9742331 C8.65771971,26.9251534 8.54085511,26.8760736 8.4239905,26.8269939 C8.7307601,26.9595092 9.02292162,27.1214724 9.30047506,27.3030675 C9.37351544,27.3521472 9.44655582,27.406135 9.5195962,27.4601227 C9.7192399,27.602454 9.2371734,27.2245399 9.4368171,27.396319 C9.56828979,27.5092025 9.69489311,27.6171779 9.81662708,27.7398773 C9.93836105,27.8625767 10.0552257,27.990184 10.1672209,28.1226994 C10.2402613,28.206135 10.3668646,28.4171779 10.113658,28.0441718 C10.1672209,28.1226994 10.2256532,28.196319 10.2792162,28.2748466 C10.4837292,28.5742331 10.6541568,28.8981595 10.8002375,29.2319018 C10.7515439,29.1141104 10.7028504,28.996319 10.6541568,28.8785276 C10.8489311,29.3398773 10.9804038,29.8208589 11.0485748,30.3214724 C11.0290974,30.1889571 11.0144893,30.0613497 10.9950119,29.9288344 C11.0583135,30.4147239 11.0583135,30.9006135 10.9998812,31.391411 C11.0193587,31.2588957 11.0339667,31.1312883 11.0534442,30.998773 C10.9852732,31.5042945 10.8538005,31.995092 10.6590261,32.4662577 C10.7077197,32.3484663 10.7564133,32.2306748 10.8051069,32.1128834 C10.6395487,32.5006135 10.4350356,32.8588957 10.1964371,33.202454 C10.0844418,33.3644172 10.2792162,33.0895706 10.2986936,33.0748466 C10.2646081,33.1042945 10.2402613,33.1484663 10.2110451,33.1828221 C10.1428741,33.2662577 10.0747031,33.3447853 10.0016627,33.4233129 C9.85071259,33.5852761 9.68515439,33.7423313 9.51472684,33.8895706 C8.9304038,34.390184 8.96448931,35.4650307 9.51472684,35.9705521 C10.1380048,36.5447853 10.956057,36.5055215 11.5793349,35.9705521 C13.7510689,34.1006135 14.5837292,30.797546 13.4832542,28.1276074 C12.8891924,26.6895706 11.9347981,25.4773006 10.6054632,24.6576687 C9.45629454,23.9460123 8.04418052,23.5730061 6.69536817,23.6417178 C3.71045131,23.793865 1.08586698,25.8453988 0.262945368,28.7509202 C-0.51128266,31.4797546 0.47719715,34.4932515 2.6976247,36.2257669 C4.90831354,37.9484663 7.9760095,38.1889571 10.4204276,36.804908 C10.834323,36.5693252 11.214133,36.2797546 11.5793349,35.9705521 C11.852019,35.7447853 12.0078385,35.2736196 12.0078385,34.9300613 C12.0078385,34.5668712 11.8471496,34.1398773 11.5793349,33.8895706 C11.3017815,33.6343558 10.9365796,33.4429448 10.5470309,33.4576687 C10.1380048,33.4773006 9.8263658,33.6245399 9.51472684,33.8895706 Z" id="Path"></path>
                </g>
            </g>
        </g>
    </g>
</svg>