<?xml version="1.0" encoding="UTF-8"?>
<svg width="78px" height="78px" viewBox="0 0 78 78" version="1.1" xmlns="http://www.w3.org/2000/svg" xmlns:xlink="http://www.w3.org/1999/xlink">
    <!-- Generator: Sketch 55.2 (78181) - https://sketchapp.com -->
    <title>Path 3</title>
    <desc>Created with Sketch.</desc>
    <g id="Home-Page" stroke="none" stroke-width="1" fill="none" fill-rule="evenodd">
        <g transform="translate(-293.000000, -1920.000000)" id="Path-3" stroke="#FFFFFF" stroke-width="4">
            <path d="M358.589814,1921.99953 C359.38468,1922.00768 362.114301,1925.65562 366.778677,1932.94334 C369.376464,1939.25354 368.047716,1947.12668 362.792432,1956.56275 C360.523912,1960.63597 360.136204,1962.72718 359.043555,1967.79779 C358.084492,1972.24848 357.708919,1980.63848 357.916836,1992.9678 L352.196644,1992.99605 L352.196644,1969.09452 C351.708303,1963.10275 349.53936,1958.90458 345.689814,1956.50001 C345.01625,1956.07928 345.145018,1956.2535 344.523342,1956.38849 C342.569128,1956.81282 339.955821,1963.52128 336.683422,1976.51388 L334.862056,1984.3514 C333.878206,1988.90665 333.096093,1991.72285 332.515718,1992.80001 C331.645156,1994.41575 313.885928,1997.02697 300.215919,1993.60165 C295.638154,1992.4546 295.639637,1991.33032 295.624264,1984.89013 C295.608965,1978.44994 305.124798,1969.9267 308.952952,1969.93269 C312.781107,1969.93867 312.709073,1972.38682 318.181872,1972.28921 C323.654671,1972.19161 326.993557,1968.51092 329.971717,1961.50529 C331.670508,1957.50916 337.332934,1943.79698 344.702092,1933.97301 C350.25185,1926.57452 358.077622,1921.99467 358.589814,1921.99953 Z"></path>
        </g>
    </g>
</svg>