<?xml version="1.0" encoding="UTF-8"?>
<svg version="1.1" viewBox="0 0 40 35" xmlns="http://www.w3.org/2000/svg">
<title>Shape</title>
<desc>Created with Sketch.</desc>
<g fill="none" fill-rule="evenodd">
<g transform="translate(-1011 -1723)" fill="#fff" fill-rule="nonzero">
<g transform="translate(1011 1723)">
<path d="m10.874 0.19245c-2.6718 0-5.3434 1.0146-7.3594 3.0601-4.032 4.091-4.0268 10.646 0 14.74l15.391 15.649c0.28312 0.28802 0.67558 0.45101 1.086 0.45101s0.80283-0.16299 1.086-0.45101c5.134-5.2093 10.272-10.424 15.406-15.634 4.0319-4.091 4.0319-10.649 0-14.74-4.032-4.091-10.687-4.0911-14.719 0l-1.7656 1.7724-1.7656-1.7876c-2.016-2.0455-4.6876-3.0601-7.3594-3.0601zm0 2.848c1.865 0 3.7428 0.74513 5.2032 2.2269l2.8438 2.8935c0.28312 0.288 0.67557 0.45098 1.0859 0.45098s0.80281-0.16298 1.0859-0.45098l2.8282-2.8783c2.9208-2.9636 7.4698-2.9635 10.391 0 2.9208 2.9635 2.9208 7.762 0 10.726-4.7701 4.84-9.5424 9.6728-14.312 14.513l-14.312-14.528c-2.9192-2.9677-2.9208-7.7621 0-10.726 1.4604-1.4818 3.3224-2.2269 5.1875-2.2269z"/>
</g>
</g>
</g>
</svg>
