<?xml version="1.0" encoding="UTF-8"?>
<svg width="70px" height="63px" viewBox="0 0 70 63" version="1.1" xmlns="http://www.w3.org/2000/svg" xmlns:xlink="http://www.w3.org/1999/xlink">
    <!-- Generator: Sketch 55.2 (78181) - https://sketchapp.com -->
    <title>Shape</title>
    <desc>Created with Sketch.</desc>
    <g id="Home-Page" stroke="none" stroke-width="1" fill="none" fill-rule="evenodd">
        <g transform="translate(-316.000000, -2034.000000)" fill-rule="nonzero" id="noun_Knife_2526675" stroke="#FFFFFF" stroke-width="2">
            <g transform="translate(317.000000, 2035.000000)">
                <path d="M27,38.414214 L23.874032,41.540182 L21.948683,47.316228 C21.89959,47.463506 21.816882,47.597332 21.707107,47.707107 L10.12132,59.292893 C8.949747,60.464466 7.050253,60.464466 5.87868,59.292893 L1.707107,55.12132 C0.535534,53.949747 0.535534,52.050253 1.707107,50.87868 L49.292893,3.292893 C49.435397,3.150389 49.617633,3.054268 49.815711,3.017128 L65.815711,0.017128 C66.402845,-0.09296 66.954898,0.332906 66.997459,0.928753 C67.685428,10.560327 64.239789,19.174424 56.707107,26.707107 L36.707107,46.707107 C36.316582,47.097631 35.683418,47.097631 35.292893,46.707107 L27,38.414214 Z M50.488354,4.92586 L23.414214,32 L36,44.585786 L55.292893,25.292893 C62.130265,18.455522 65.373297,10.774362 65.062984,2.193124 L50.488354,4.92586 Z M3.12132,52.292893 C2.730796,52.683418 2.730796,53.316582 3.12132,53.707107 L7.292893,57.87868 C7.683418,58.269204 8.316582,58.269204 8.707107,57.87868 L20.125968,46.459818 L22.051317,40.683772 C22.10041,40.536494 22.183118,40.402668 22.292893,40.292893 L25.585786,37 L22,33.414214 L3.12132,52.292893 Z" id="Shape"></path>
            </g>
        </g>
    </g>
</svg>