<svg width="41" height="40" xmlns="http://www.w3.org/2000/svg"><g fill="#FF968D"><path d="M6.515 25.045a22.272 22.272 0 0 1-.083-.554c.02.132.035.26.054.392a16.535 16.535 0 0 1 0-4.162c-.02.133-.034.26-.054.393.185-1.389.55-2.743 1.091-4.034l-.146.353c.307-.726.662-1.428 1.071-2.1.2-.33.414-.653.638-.962l.16-.221c.035-.044.064-.098.103-.138 0 0-.243.31-.102.138.127-.157.253-.32.385-.471a15.903 15.903 0 0 1 1.602-1.645l.409-.353c.068-.059.14-.113.209-.172.034-.03.073-.054.107-.083-.365.294-.17.132-.083.064a15.776 15.776 0 0 1 3.287-1.904 21.53 21.53 0 0 0-.35.147c.209-.089.423-.172.637-.256.366-.137.672-.329.872-.677.185-.314.263-.78.146-1.134-.224-.702-1.032-1.315-1.797-1.03-2.765 1.045-5.273 2.743-7.172 5.03-1.904 2.292-3.258 5.04-3.779 7.995a18.196 18.196 0 0 0-.02 6.165c.06.343.385.711.673.878.311.187.774.265 1.125.148.355-.113.696-.334.871-.678.195-.363.214-.716.146-1.129zM29.42 33.89l-.238.196c-.039.034-.083.064-.122.098.185-.142.23-.182.142-.113-.156.118-.312.236-.468.344-.297.21-.599.412-.91.598-.648.393-1.32.737-2.016 1.036l.35-.147a15.68 15.68 0 0 1-3.91 1.075c.132-.02.258-.035.39-.054a15.915 15.915 0 0 1-4.266 0c.132.02.258.034.39.054a15.68 15.68 0 0 1-3.91-1.075l.35.147a15.647 15.647 0 0 1-2.926-1.634c-.146-.103-.293-.216-.439-.324-.121-.093-.082-.064.112.088-.039-.034-.082-.064-.121-.098-.083-.064-.161-.133-.239-.196-.307-.256-.618-.432-1.032-.432-.36 0-.784.162-1.033.432-.491.54-.628 1.56 0 2.08 2.352 1.954 5.162 3.333 8.186 3.804 3.107.486 6.315.192 9.227-1.035a18.068 18.068 0 0 0 4.558-2.768c.273-.226.429-.702.429-1.04 0-.364-.161-.791-.429-1.041-.278-.256-.643-.447-1.032-.432-.42.024-.73.176-1.042.437zM25.55 9.477c.214.079.423.167.637.256l-.35-.148c.72.31 1.417.668 2.084 1.08.326.201.648.417.954.643l.22.162c.043.034.097.064.136.103 0 0-.307-.245-.137-.103.156.128.317.255.468.388.58.495 1.13 1.04 1.631 1.614l.35.413c.06.068.113.142.171.21.03.035.054.074.083.109a5.344 5.344 0 0 1-.063-.084 15.988 15.988 0 0 1 1.89 3.313l-.147-.353c.54 1.29.906 2.65 1.09 4.034-.019-.132-.034-.26-.053-.393.18 1.385.18 2.783 0 4.162.02-.132.034-.26.054-.392-.025.186-.054.368-.083.554-.068.403-.064.771.146 1.134.175.304.526.599.871.677.707.162 1.666-.216 1.797-1.03a18.55 18.55 0 0 0 .064-5.64c-.215-1.511-.663-2.944-1.262-4.343-1.163-2.729-3.087-5.045-5.424-6.837-1.325-1.016-2.795-1.781-4.348-2.37-.336-.128-.828-.03-1.125.147-.302.177-.594.53-.672.878-.19.84.253 1.527 1.018 1.816z"/><path d="M24.566 7.077c0 .24-.015.481-.044.717.02-.133.034-.26.054-.393-.069.491-.19.967-.38 1.428l.146-.353a5.7 5.7 0 0 1-.648 1.149c-.14.2.258-.32.03-.04a6.6 6.6 0 0 1-.351.388 6.44 6.44 0 0 1-.385.353c-.277.231.239-.166.04-.03-.074.05-.142.104-.215.153a5.6 5.6 0 0 1-.925.496l.35-.147a5.696 5.696 0 0 1-1.358.373c.131-.02.258-.035.39-.054a5.624 5.624 0 0 1-1.52 0c.132.02.258.034.39.054a5.696 5.696 0 0 1-1.359-.373l.35.147a5.994 5.994 0 0 1-.924-.496 5.753 5.753 0 0 1-.215-.152c-.2-.142.317.26.04.03a5.318 5.318 0 0 1-.385-.354 6.6 6.6 0 0 1-.351-.388c-.229-.28.17.24.03.04-.05-.074-.103-.143-.152-.216a5.7 5.7 0 0 1-.496-.933l.146.353a6.002 6.002 0 0 1-.38-1.428c.02.133.034.26.053.393a5.919 5.919 0 0 1 .005-1.468c-.02.133-.034.26-.053.393.068-.481.194-.952.38-1.404l-.147.354a5.85 5.85 0 0 1 .633-1.124c.112-.162-.112.142-.112.142.005-.024.064-.078.078-.098.117-.142.239-.275.366-.402.121-.123.248-.236.374-.349.035-.03.069-.054.098-.083.126-.108-.283.206-.141.112.073-.049.136-.098.21-.147a5.39 5.39 0 0 1 .934-.505l-.35.147a5.67 5.67 0 0 1 1.392-.383c-.131.02-.258.034-.39.054a5.823 5.823 0 0 1 1.49 0c-.131-.02-.258-.034-.39-.054.478.069.946.196 1.394.383l-.351-.147a5.774 5.774 0 0 1 1.115.638c.16.113-.141-.113-.141-.113.024.005.078.064.097.078.141.118.273.24.4.369.121.122.233.25.345.377.03.035.054.07.083.099.107.127-.204-.285-.112-.143.049.074.097.138.146.211.2.3.365.614.502.943l-.146-.354c.185.452.311.918.38 1.404-.02-.133-.035-.26-.054-.393.014.246.029.491.034.746.005.77.667 1.507 1.46 1.473.79-.035 1.466-.648 1.462-1.473-.01-1.374-.405-2.783-1.184-3.916-.842-1.227-1.967-2.11-3.34-2.665-2.576-1.04-5.722-.265-7.582 1.791-.905 1.001-1.568 2.268-1.762 3.617-.23 1.605 0 3.205.788 4.629.653 1.182 1.7 2.208 2.903 2.812 1.402.697 2.897.898 4.436.657 2.726-.431 5.073-2.758 5.585-5.482.087-.47.146-.957.15-1.438.006-.77-.676-1.507-1.46-1.472-.794.03-1.451.638-1.456 1.467zm12.977 25.64a7.946 7.946 0 0 1-.375.574c.268-.383.136-.172.063-.089-.19.231-.4.442-.618.638-.034.035-.127.143-.176.148.064-.005.322-.24.088-.074a5.713 5.713 0 0 1-1.12.633l.35-.147a5.843 5.843 0 0 1-1.411.383c.131-.02.258-.035.39-.054a5.71 5.71 0 0 1-1.476-.005c.131.02.258.034.39.054a5.704 5.704 0 0 1-1.393-.388c.116.05.233.098.35.147a6.127 6.127 0 0 1-.915-.495l-.146-.103c-.127-.094-.098-.07.082.068-.043-.059-.136-.108-.19-.157a5.98 5.98 0 0 1-.36-.343c-.112-.118-.219-.246-.326-.373-.175-.211.21.3.058.073-.053-.078-.107-.152-.155-.23a5.774 5.774 0 0 1-.453-.86l.146.354a5.892 5.892 0 0 1-.395-1.467c.02.132.035.26.054.392a5.88 5.88 0 0 1 .005-1.462c-.02.132-.034.26-.054.392a5.99 5.99 0 0 1 .395-1.443l-.146.354c.146-.334.316-.653.52-.957.05-.074.103-.167.166-.23-.048.063-.097.122-.141.186.03-.035.058-.074.088-.108.112-.133.229-.26.35-.383.122-.118.249-.23.38-.344.205-.176-.302.216-.083.064.073-.054.146-.103.22-.157a5.51 5.51 0 0 1 .876-.476l-.35.147a5.844 5.844 0 0 1 1.465-.407c-.132.02-.258.034-.39.054a5.636 5.636 0 0 1 1.466.005c-.131-.02-.258-.035-.39-.054.473.068.926.196 1.369.378l-.35-.148a5.71 5.71 0 0 1 1.041.58c.098.068.341.294-.024-.03.068.059.136.113.204.172.122.108.244.226.356.343.112.118.214.25.321.373-.326-.368-.107-.137-.034-.039.044.064.088.123.127.187.18.28.33.579.462.883l-.146-.353c.185.456.312.932.38 1.423-.02-.133-.034-.26-.053-.393.063.496.058.992-.005 1.487.02-.132.034-.26.053-.392a5.82 5.82 0 0 1-.384 1.404l.146-.354c-.093.216-.19.417-.302.619-.38.667-.18 1.639.526 2.012.691.368 1.597.186 1.996-.53 1.34-2.37 1.247-5.473-.404-7.671-.954-1.267-2.235-2.214-3.769-2.646-1.31-.368-2.78-.343-4.066.103-1.441.5-2.624 1.409-3.52 2.646-.848 1.168-1.29 2.68-1.266 4.122.053 3.087 2.142 5.85 5.098 6.695 2.58.731 5.565-.147 7.245-2.277a8.66 8.66 0 0 0 .687-.977c.385-.668.175-1.644-.526-2.012-.706-.369-1.592-.177-2.001.535zM9.515 33.89c-.025.02-.253.206-.059.049.19-.148-.024.014-.068.044a3.82 3.82 0 0 1-.38.24 5.479 5.479 0 0 1-.608.305l.35-.148c-.448.187-.91.32-1.392.388.131-.02.258-.034.39-.054a5.71 5.71 0 0 1-1.476.005c.131.02.258.034.39.054a5.843 5.843 0 0 1-1.413-.383l.35.147a5.722 5.722 0 0 1-.905-.48c-.073-.05-.141-.099-.214-.148-.292-.21.224.192.039.03a7.922 7.922 0 0 1-.365-.33 5.91 5.91 0 0 1-.336-.362c-.078-.094-.254-.368.02.034-.05-.074-.108-.147-.157-.22a5.902 5.902 0 0 1-.52-.963l.145.354a5.82 5.82 0 0 1-.384-1.404c.02.132.034.26.053.392a5.847 5.847 0 0 1-.005-1.487c-.02.133-.034.26-.053.393a5.96 5.96 0 0 1 .38-1.423c-.05.117-.098.235-.147.353.127-.3.273-.584.444-.859.043-.073.092-.147.146-.216.073-.103.292-.329-.034.04.107-.123.209-.25.321-.374.112-.117.234-.235.355-.343.069-.059.137-.113.205-.172-.356.314-.151.118-.054.05a5.75 5.75 0 0 1 1.072-.6l-.351.148c.443-.182.896-.31 1.368-.378-.131.02-.258.034-.39.054a5.86 5.86 0 0 1 1.466-.005c-.131-.02-.258-.034-.39-.054.507.069 1 .206 1.467.407l-.351-.147c.307.133.599.294.876.476.074.05.147.103.22.157.2.142-.283-.235-.083-.064.131.113.258.221.38.344.121.123.238.25.35.383.073.083.2.294-.053-.079.053.079.112.152.165.23.205.3.375.624.521.958l-.146-.353c.195.46.326.942.395 1.442-.02-.132-.035-.26-.054-.392.063.486.063.972.005 1.462.02-.132.034-.26.053-.392-.068.505-.2.996-.394 1.467l.146-.353c-.165.388-.37.746-.609 1.09-.112.161.083-.113.103-.128-.034.03-.059.073-.088.108a4.917 4.917 0 0 1-.21.24 6.29 6.29 0 0 1-.486.467c-.585.5-.55 1.575 0 2.08.623.575 1.441.536 2.064 0 2.172-1.87 3.005-5.172 1.904-7.842-.594-1.438-1.548-2.65-2.878-3.47a6.905 6.905 0 0 0-3.91-1.016c-2.985.152-5.61 2.203-6.432 5.109-.774 2.729.214 5.742 2.435 7.475 2.21 1.722 5.278 1.963 7.722.579a7.724 7.724 0 0 0 1.16-.834c.272-.226.428-.697.428-1.04 0-.364-.16-.791-.429-1.041-.277-.256-.642-.447-1.032-.432-.409.02-.72.167-1.032.432z"/></g></svg>