<?xml version="1.0" encoding="UTF-8"?>
<svg width="40px" height="40px" viewBox="0 0 40 40" version="1.1" xmlns="http://www.w3.org/2000/svg" xmlns:xlink="http://www.w3.org/1999/xlink">
    <!-- Generator: Sketch 55.1 (78136) - https://sketchapp.com -->
    <title>noun_Do Not Enter_137963</title>
    <desc>Created with Sketch.</desc>
    <g id="Case-Study" stroke="none" stroke-width="1" fill="none" fill-rule="evenodd">
        <g id="Calling-Case-Study" transform="translate(-497.000000, -1721.000000)" fill="#FF968D">
            <g id="noun_Do-Not-Enter_137963" transform="translate(497.000000, 1721.000000)">
                <path d="M20,40 C8.95428571,40 0,31.0457143 0,20 C0,8.95428571 8.95428571,0 20,0 C31.0457143,0 40,8.95428571 40,20 C40,31.0457143 31.0457143,40 20,40 Z M20,4.2 C11.2742857,4.2 4.2,11.2742857 4.2,20 C4.2,28.7257143 11.2742857,35.8014286 20,35.8014286 C28.7257143,35.8014286 35.8,28.7257143 35.8,20 C35.8,11.2742857 28.7257143,4.2 20,4.2 Z M27.8571429,21.4285714 L12.1428571,21.4285714 C10.96,21.4285714 10,20.4685714 10,19.2857143 C10,18.1028571 10.96,17.1428571 12.1428571,17.1428571 L27.8571429,17.1428571 C29.04,17.1428571 30,18.1028571 30,19.2857143 C30,20.4685714 29.04,21.4285714 27.8571429,21.4285714 Z" id="Shape"></path>
            </g>
        </g>
    </g>
</svg>