<svg width="59" height="31" xmlns="http://www.w3.org/2000/svg"><path d="M16.175 0c-2.444 0-4.865 1.869-4.865 4.784v.797c-2.88-.98-7.105.069-7.105 3.15v3.241H1.34c-.74 0-1.34.535-1.34 1.194v4.668c0 .66.6 1.194 1.34 1.194h2.865v3.241c0 3.081 4.224 4.13 7.105 3.15v.797c0 2.914 2.42 4.784 4.865 4.784 2.444 0 4.866-1.869 4.866-4.784v-7.188h17.007v7.188c0 2.915 2.42 4.784 4.863 4.784 2.443 0 4.862-1.87 4.862-4.784v-.79c2.882.971 7.093-.08 7.093-3.157v-3.241h2.793c.74 0 1.341-.535 1.341-1.194v-4.668c0-.66-.6-1.194-1.34-1.194h-2.794V8.731c0-3.076-4.211-4.128-7.093-3.157v-.79C47.773 1.87 45.353 0 42.91 0c-2.443 0-4.863 1.87-4.863 4.784v7.188H21.041V4.784C21.04 1.87 18.619 0 16.175 0zm0 2.388c1.081 0 2.184.525 2.184 2.396v21.432c0 1.871-1.103 2.396-2.184 2.396-1.08 0-2.184-.525-2.184-2.396V4.784c0-1.871 1.103-2.396 2.184-2.396zm26.736 0c1.078 0 2.18.524 2.18 2.396v21.432c0 1.872-1.102 2.396-2.18 2.396-1.079 0-2.18-.524-2.18-2.396V4.784c0-1.872 1.101-2.396 2.18-2.396zM9.067 7.703c1.09 0 2.18.342 2.18 1.028-.001.126.02.252.063.373v12.795c-.043.12-.064.245-.062.37 0 1.371-4.362 1.371-4.362 0V8.731c0-.686 1.09-1.028 2.181-1.028zm40.934 0c1.092 0 2.184.343 2.184 1.028v13.538c0 1.37-4.368 1.37-4.368 0a1.07 1.07 0 0 0-.044-.314V9.05a1.07 1.07 0 0 0 .044-.32c0-.684 1.092-1.026 2.184-1.026zM2.68 14.36h1.524v2.28H2.682v-2.28zm18.36 0h17.007v2.28H21.041v-2.28zm33.825 0h1.453v2.28h-1.453v-2.28z" fill="#FF968D" fill-rule="evenodd"/></svg>