<?xml version="1.0" encoding="UTF-8"?>
<svg width="59px" height="31px" viewBox="0 0 59 31" version="1.1" xmlns="http://www.w3.org/2000/svg" xmlns:xlink="http://www.w3.org/1999/xlink">
    <!-- Generator: Sketch 55.1 (78136) - https://sketchapp.com -->
    <title>Group</title>
    <desc>Created with Sketch.</desc>
    <g id="Case-Study" stroke="none" stroke-width="1" fill="none" fill-rule="evenodd">
        <g id="Calling-Case-Study" transform="translate(-223.000000, -1725.000000)" fill="#FF968D">
            <g id="Group" transform="translate(252.500000, 1740.500000) rotate(-90.000000) translate(-252.500000, -1740.500000) translate(236.500000, 1711.000000)">
                <path d="M31.5,16.1751834 C31.5,13.7311757 29.6312496,11.3095612 26.7157925,11.3095612 L25.9192963,11.3095612 C26.8998262,8.42928881 25.850212,4.20482225 22.7693134,4.20482225 L19.5279106,4.20482225 L19.5279106,1.34090894 C19.5279089,0.600346148 18.993296,-1.42108547e-14 18.333817,-1.42108547e-14 L13.6660158,-1.42108547e-14 C13.0066068,-1.42108547e-14 12.472103,0.600424689 12.4721014,1.34090894 L12.4721014,4.20482225 L9.23073441,4.20482225 C6.14979393,4.20482225 5.1001857,8.42928881 6.08071562,11.3095612 L5.28425522,11.3095612 C2.36875641,11.3095612 0.5,13.7311757 0.5,16.1751834 C0.5,18.619124 2.36875641,21.0407385 5.28425522,21.0407385 L12.4721014,21.0407385 L12.4721014,38.048499 L5.28425522,38.048499 C2.36929375,38.048499 0.5,40.4678339 0.5,42.9107689 C0.5,45.3537709 2.36929375,47.7728376 5.28425522,47.7728376 L6.07384958,47.7728376 C5.10257389,50.6546521 6.15463001,54.8662459 9.23073441,54.8662459 L12.4721014,54.8662459 L12.4721014,57.6592922 C12.4722019,58.3996979 13.0066767,59 13.6660158,59 L18.333817,59 C18.9932261,59 19.52781,58.3997764 19.5279106,57.6592922 L19.5279106,54.8662459 L22.7693134,54.8662459 C25.84537,54.8662459 26.8974619,50.6546521 25.9261982,47.7728376 L26.7157925,47.7728376 C29.630748,47.7728376 31.5,45.3537709 31.5,42.9107689 C31.5,40.4678339 29.630748,38.048499 26.7157925,38.048499 L19.5279106,38.048499 L19.5279106,21.0407385 L26.7157925,21.0407385 C29.6312496,21.0407385 31.5,18.619124 31.5,16.1751834 Z M29.112004,16.1751834 C29.112004,17.255956 28.5873969,18.3591218 26.7157925,18.3591218 L5.28425522,18.3591218 C3.41263299,18.3591218 2.88782887,17.255956 2.88782887,16.1751834 C2.88782887,15.0943437 3.41263299,13.9911109 5.28425522,13.9911109 L9.23073441,13.9911109 L22.7693134,13.9911109 L26.7157925,13.9911109 C28.5873969,13.9911109 29.112004,15.0943437 29.112004,16.1751834 Z M29.112004,42.9107689 C29.112004,43.9892619 28.5878984,45.091422 26.7157925,45.091422 L22.7693134,45.091422 L9.23073441,45.091422 L5.28425522,45.091422 C3.41215535,45.091422 2.88782887,43.9892619 2.88782887,42.9107689 C2.88782887,41.8323429 3.41215535,40.7301157 5.28425522,40.7301157 L26.7157925,40.7301157 C28.5878984,40.7301157 29.112004,41.8323429 29.112004,42.9107689 L29.112004,42.9107689 Z M23.7973563,9.06709215 C23.7973563,10.1573852 23.4546872,11.2477453 22.7693134,11.2477453 C22.6428597,11.2460424 22.5169679,11.2669077 22.3963442,11.3095612 L9.60126164,11.3095612 C9.48141776,11.2671942 9.35637038,11.2463322 9.23073441,11.2477453 C7.85997472,11.2477453 7.85997472,6.88643899 9.23073441,6.88643899 L22.7693134,6.88643899 C23.4546872,6.88643899 23.7973563,7.97673205 23.7973563,9.06709215 L23.7973563,9.06709215 Z M23.7961622,50.0006237 C23.7961622,51.09266 23.4540126,52.1846292 22.7694268,52.1846292 L9.23085382,52.1846292 C7.86164645,52.1846292 7.86164645,47.8166183 9.23085382,47.8166183 C9.3369538,47.8178485 9.4427265,47.803193 9.54537806,47.7730388 L22.4498217,47.7730388 C22.5541163,47.8037005 22.6616283,47.8183602 22.7694268,47.8166183 C23.4540126,47.8166183 23.7961622,48.9085875 23.7961622,50.0006237 L23.7961622,50.0006237 Z M17.1399922,2.68161674 L17.1399922,4.20482225 L14.8602287,4.20482225 L14.8602287,2.68161674 L17.1399922,2.68161674 Z M17.1399922,21.0407385 L17.1399922,38.048499 L14.8602287,38.048499 L14.8602287,21.0407385 L17.1399922,21.0407385 Z M17.1399922,54.8662459 L17.1399922,56.3186514 L14.8602287,56.3186514 L14.8602287,54.8662459 L17.1399922,54.8662459 Z" id="Shape"></path>
            </g>
        </g>
    </g>
</svg>