<svg width="40" height="35" xmlns="http://www.w3.org/2000/svg"><path d="M10.874.192c-2.672 0-5.343 1.015-7.36 3.06-4.031 4.092-4.026 10.647 0 14.74l15.391 15.65c.283.288.676.45 1.086.45.41 0 .803-.162 1.086-.45l15.406-15.634a10.493 10.493 0 0 0 0-14.74c-4.032-4.091-10.686-4.091-14.718 0L19.999 5.04l-1.766-1.787c-2.016-2.046-4.687-3.06-7.359-3.06zm0 2.848c1.865 0 3.743.746 5.203 2.227l2.844 2.894c.283.288.676.45 1.086.45.41 0 .803-.162 1.086-.45l2.828-2.878c2.92-2.964 7.47-2.964 10.39 0 2.921 2.963 2.921 7.762 0 10.725-4.77 4.84-9.542 9.673-14.312 14.513L5.687 15.993c-2.92-2.968-2.921-7.762 0-10.726 1.46-1.481 3.322-2.227 5.187-2.227z" fill="#FF968D"/></svg>